<?xml version="1.0" encoding="UTF-8" standalone="no"?>
<!-- Generator: Adobe Illustrator 18.1.1, SVG Export Plug-In . SVG Version: 6.00 Build 0)  -->
<!DOCTYPE svg  PUBLIC '-//W3C//DTD SVG 1.1//EN'  'http://www.w3.org/Graphics/SVG/1.1/DTD/svg11.dtd'>
<svg id="レイヤー_1" xmlns="http://www.w3.org/2000/svg" xml:space="preserve" viewBox="0 0 240 240" version="1.1" y="0px" x="0px" xmlns:xlink="http://www.w3.org/1999/xlink" enable-background="new 0 0 240 240">
	<path d="m157.9 177h-137.7c-10.8 0-19.7-8.9-19.7-19.7v-137.6c0-10.8 8.9-19.7 19.7-19.7h137.7c10.8 0 19.7 8.9 19.7 19.7v137.7c-0.1 10.8-8.9 19.6-19.7 19.6zm-137.7-157.3v137.7h137.7v-137.7h-137.7z"/>
	<path d="m190.3 29.5v161.3h-160.3c0 9.8 8.9 19.7 19.7 19.7h137.7c10.8 0 22.6-12.8 22.6-23.6v-137.7c0-10.8-9.9-19.7-19.7-19.7z"/>
	<path d="m219.8 59v161.3h-160.3c0 9.8 8.9 19.7 19.7 19.7h137.7c10.8 0 22.6-12.8 22.6-23.6v-137.7c0-10.8-9.9-19.7-19.7-19.7z"/>
	<rect y="14.8" x="17.2" height="142.6" width="140.6"/>
</svg>
