<?xml version="1.0" encoding="utf-8"?>
<!-- Generator: Adobe Illustrator 18.1.1, SVG Export Plug-In . SVG Version: 6.00 Build 0)  -->
<!DOCTYPE svg PUBLIC "-//W3C//DTD SVG 1.1//EN" "http://www.w3.org/Graphics/SVG/1.1/DTD/svg11.dtd">
<svg version="1.1" id="レイヤー_1" xmlns="http://www.w3.org/2000/svg" xmlns:xlink="http://www.w3.org/1999/xlink" x="0px"
	 y="0px" viewBox="0 0 240 240" enable-background="new 0 0 240 240" xml:space="preserve">
<path fill="#040000" d="M184.1,0.3c-6.6,0-18.6,2.4-25.1,9.6l-40.1,44.3L78.7,9.8c-6-6.6-16.2-9.6-23.9-9.6
	c-17.4,0-32.3,15-32.3,31.7v108.4c0,15.6,10.8,26.3,15,29.9l0.6,0.6c0.6,0.6,2.4,2.4,70.6,63.5c2.4,3,6,5.4,10.2,5.4h0.6l0,0
	c4.2,0,7.8-2.4,10.2-5.4c64.1-56.3,70-61.7,71.2-62.9l0.6-0.6c4.2-4.2,16.2-14.4,16.2-29.9V32C217.6,14,199.6,0.3,184.1,0.3z
	 M118.8,210.4c-29.9-26.3-59.9-53.3-62.9-56.3c-0.6-0.6-0.6-0.6-1.2-1.2c-2.4-2.4-7.2-7.2-7.2-12.6V32c0-3.6,4.2-7.2,7.8-7.2
	c1.8,0,4.8,1.2,5.4,1.8l58.7,58.7L118.8,210.4z"/>
</svg>
