<?xml version="1.0" encoding="UTF-8" standalone="no"?>
<!-- Generator: Adobe Illustrator 18.1.1, SVG Export Plug-In . SVG Version: 6.00 Build 0)  -->
<!DOCTYPE svg  PUBLIC '-//W3C//DTD SVG 1.1//EN'  'http://www.w3.org/Graphics/SVG/1.1/DTD/svg11.dtd'>
<svg id="レイヤー_1" xmlns="http://www.w3.org/2000/svg" xml:space="preserve" viewBox="0 0 240 240" version="1.1" y="0px" x="0px" xmlns:xlink="http://www.w3.org/1999/xlink" enable-background="new 0 0 240 240">
	<circle cy="106.2" cx="179.2" r="30.7"/>
	<path d="m90.4 155.6h-68v-109.6h175.4v9.9c0 2.2 10.9 6.6 21.9 12.1v-28.6c0-6.6-9.9-15.4-16.4-15.4h-197.4c-5.5 0-5.5 8.8-5.5 15.4v131.6c0 5.5 0 6.6 5.5 6.6h104.2c-4.4-0.1-10.9-11-19.7-22z"/>
	<path d="m179.2 143.6c-16.4 0-27.4 5.5-41.7 0-13.2-5.5-21.9-13.2-25.2-16.4-1.1-1.1-3.3-1.1-4.4-1.1l-30.7-37.3c-2.2-2.2-5.5-2.2-7.7-1.1-2.2 2.2-2.2 5.5-1.1 7.7l30.7 37.3c0 1.1 0 3.3 1.1 4.4 5.5 6.6 17.5 23 24.1 28.5 8.8 6.6 24.1 18.7 26.3 19.7 1.1 0 2.2 2.2 2.2 3.3l-1.1 21.9c0 2.2 1.1 3.3 3.3 3.3 0 0 16.4 2.2 26.3 2.2 10.9 0 28.5-2.2 28.5-2.2 2.2-1.1 3.3-2.2 3.3-3.3l-1.1-21.9c0-2.2 0-4.4 2.2-4.4s2.2 3.3 3.3 4.4l3.3 21.9c1.1 2.2 2.2 3.3 3.3 2.2l12.1-2.2c2.2-1.1 3.3-2.2 3.3-4.4-4.4-1.2-4.4-62.5-60.3-62.5z"/>
</svg>
