<?xml version="1.0" encoding="UTF-8" standalone="no"?>
<!-- Generator: Adobe Illustrator 18.1.1, SVG Export Plug-In . SVG Version: 6.00 Build 0)  -->
<!DOCTYPE svg  PUBLIC '-//W3C//DTD SVG 1.1//EN'  'http://www.w3.org/Graphics/SVG/1.1/DTD/svg11.dtd'>
<svg id="レイヤー_1" xmlns="http://www.w3.org/2000/svg" xml:space="preserve" viewBox="0 0 240 240" version="1.1" y="0px" x="0px" xmlns:xlink="http://www.w3.org/1999/xlink" enable-background="new 0 0 240 240">
	<path d="m26.4 102.3c-9.9-9.8-13.4-21.8-12.7-33.7 0.7-12 5.6-23.9 14.1-32.4s20.4-14.1 32.4-14.8 23.9 3.6 33.7 13.4l38.7 38.7 8.4-8.4c-17.6-17.6-33-33.1-38.7-38.7-12.6-12.7-28.1-17.6-42.9-16.9s-29.5 7.7-40.1 18.3-16.8 25.3-17.5 40.8c-0.7 14.7 4.2 30.9 16.1 42.9l38.7 38.7 8.4-8.4c-15.4-16.3-28.8-29.6-38.6-39.5zm177.9 76c2.1 2.1 6.3 2.1 8.4 0s2.1-6.3 0-8.4l-53.5-53.5-8.4 8.4 34.5 34.5c11.3 12 19 19 19 19zm-133.6-123.8c6.3 0.7 12.7 3.5 16.9 7.7l28.1 28.1 8.4-8.4-28.1-28.1c-6.3-6.3-15.5-10.6-25.3-11.3-9.1-0.7-19.7 2.1-27.4 9.8s-10.6 16.9-9.8 26.7c0.7 9.1 4.9 18.3 11.3 25.3l28.1 28.1 8.4-8.4c-13.4-13.2-24.7-24.5-28.2-28-4.9-4.9-7.7-11.3-7.7-17.6-0.7-6.3 1.4-12 6.3-16.9 6.3-5.6 12.7-7 19-7zm28.8 121l-8.4 8.4 11.3 11.3c2.1 2.1 6.3 2.1 8.4 0s2.1-6.3 0-8.4l-11.3-11.3zm140.7 4.9c-0.7-12-6.3-23.2-13.4-30.2l-50.6-50.6-8.4 8.4 50.6 50.6c5.6 5.6 9.8 14.1 9.8 22.5 0.7 9.1-2.1 18.3-10.6 26.7-8.4 8.4-17.6 11.3-26.7 11.3-8.4-0.7-16.9-4.2-23.2-10.6l-50.6-50.6-8.4 8.4 50.6 50.6c7.7 7.7 19 13.4 30.9 14.1 12 0.7 25.3-3.5 35.9-14.8 10.6-10.5 14.8-23.8 14.1-35.8z" fill="#231815"/>
	<path d="m10.9 240.2c-2.8 0-5.6-0.7-7.7-2.8-4.2-4.2-4.2-10.6 0-14.8l219.4-219.4c4.2-4.2 10.6-4.2 14.8 0s4.2 10.6 0 14.8l-218.8 218.7c-2.1 2.1-4.9 3.5-7.7 3.5z"/>
</svg>
