<?xml version="1.0" encoding="UTF-8" standalone="no"?>
<!-- Generator: Adobe Illustrator 18.1.1, SVG Export Plug-In . SVG Version: 6.00 Build 0)  -->
<!DOCTYPE svg  PUBLIC '-//W3C//DTD SVG 1.1//EN'  'http://www.w3.org/Graphics/SVG/1.1/DTD/svg11.dtd'>
<svg id="レイヤー_1" xmlns="http://www.w3.org/2000/svg" xml:space="preserve" viewBox="0 0 240 240" version="1.1" y="0px" x="0px" xmlns:xlink="http://www.w3.org/1999/xlink" enable-background="new 0 0 240 240">
	<path d="m173.8 14.7c-52-30.3-118-11.9-147.2 39-26 45.5-16.2 100.7 20.6 134.2l-6.5 45.5c-1.1 5.4 4.3 8.7 9.7 5.4l36.8-27.1c47.6 15.2 100.7-4.3 126.6-48.7 29.3-52 12-119.1-40-148.3zm-97.4 110.4c-8.7 0-16.2-7.6-16.2-16.2s7.6-16.2 16.2-16.2c8.7 0 16.2 7.6 16.2 16.2s-7.5 16.2-16.2 16.2zm43.3 0c-8.7 0-16.2-7.6-16.2-16.2s7.6-16.2 16.2-16.2c8.7 0 16.2 7.6 16.2 16.2s-7.6 16.2-16.2 16.2zm43.3 0c-8.7 0-16.2-7.6-16.2-16.2s7.6-16.2 16.2-16.2 16.2 7.6 16.2 16.2-7.6 16.2-16.2 16.2z"/>
</svg>
