<?xml version="1.0" encoding="UTF-8" standalone="no"?>
<!-- Generator: Adobe Illustrator 18.1.1, SVG Export Plug-In . SVG Version: 6.00 Build 0)  -->
<!DOCTYPE svg  PUBLIC '-//W3C//DTD SVG 1.1//EN'  'http://www.w3.org/Graphics/SVG/1.1/DTD/svg11.dtd'>
<svg id="レイヤー_1" xmlns="http://www.w3.org/2000/svg" xml:space="preserve" viewBox="0 0 240 240" version="1.1" y="0px" x="0px" xmlns:xlink="http://www.w3.org/1999/xlink" enable-background="new 0 0 240 240">
<path d="m221 53.2l-27.1 5.2c-2.6-3.5-6.1-7-9.6-9.6l5.2-27.1c0.9-2.6-0.9-5.2-3.5-6.1l-34.1-14.9c-2.6-0.9-5.2 0-7 1.7l-15.7 22.7c-4.4 0-8.7-0.9-14 0l-15.7-22.6c-1.7-1.7-4.4-3.5-7-1.7l-34.1 12.2c-2.6 0.9-4.4 4.4-3.5 7l5.3 27c-4.4 2.6-7 6.1-10.5 9.6l-27.1-5.2c-2.6-0.9-5.2 0.9-7 3.5l-14.9 34.1c-0.9 2.6 0 5.2 1.7 7l22.7 15.7v14l-22.6 15.7c-1.7 1.7-3.5 4.4-1.7 7l14 34.1c0.9 2.6 3.5 4.4 6.1 3.5l27.1-5.2c2.6 3.5 6.1 7 9.6 9.6l-5.2 27.1c-0.9 2.6 0.9 5.2 3.5 6.1l34.1 14.9c2.6 0.9 5.2 0 7-1.7l15.7-22.7c4.4 0 8.7 0.9 14 0l15.7 22.7c1.7 1.7 4.4 3.5 7 1.7l34.1-14c2.6-0.9 4.4-3.5 3.5-6.1l-5.2-27.1c3.5-2.6 7-6.1 9.6-9.6l27.1 5.2c2.6 0.9 5.2-0.9 6.1-3.5l14.9-34.1c0.9-2.6 0-5.2-1.7-7l-22.7-15.7c0-4.4 0.9-8.7 0-14l22.7-15.7c1.7-1.7 3.5-4.4 1.7-7l-14-34.1c1.6-1.8-1.9-3.5-4.5-2.6zm-87.4 97c-17.5 7-36.7-1.7-43.7-18.4-7-17.5 1.7-36.7 18.4-43.7 17.5-7 36.7 1.7 43.7 18.4 6.9 17.5-0.9 36.7-18.4 43.7z" fill="#231815"/>
</svg>
