<?xml version="1.0" encoding="UTF-8" standalone="no"?>
<!-- Generator: Adobe Illustrator 18.1.1, SVG Export Plug-In . SVG Version: 6.00 Build 0)  -->
<!DOCTYPE svg  PUBLIC '-//W3C//DTD SVG 1.1//EN'  'http://www.w3.org/Graphics/SVG/1.1/DTD/svg11.dtd'>
<svg id="レイヤー_1" xmlns="http://www.w3.org/2000/svg" xml:space="preserve" viewBox="0 0 240 240" version="1.1" y="0px" x="0px" xmlns:xlink="http://www.w3.org/1999/xlink" enable-background="new 0 0 240 240">
	<path d="m152 116.7c-3.8 0-6.7 0-9.6 1 25.8 13.4 48.8 40.2 57.4 94.7h1l-1.9-26.8c0-2.9 0-7.7 2.9-7.7s3.8 4.8 4.8 7.7l4.8 32.5c1 2.9 2.9 4.8 5.7 3.8l18.2-3.8c2.9-1 4.8-3.8 4.8-6.7-2.9-0.1-2.9-94.7-88.1-94.7z"/>
		<circle cy="53.5" cx="94.7" r="52.6"/>
		<path d="m156.8 53.5c0 20.1-9.6 38.3-24.9 49.7 5.7 2.9 12.4 4.8 20.1 4.8 25.8 0 47.8-21 47.8-47.8 0-25.8-21-47.8-47.8-47.8-2.9 0-6.7 0-9.6 1 9.6 10.5 14.4 24.8 14.4 40.1z"/>
		<path d="m94.7 116.7c-93.8 0-94.7 105.2-94.7 105.2 0 2.9 1.9 5.7 4.8 6.7l23 4.8c2.9 1 4.8-1 5.7-3.8l6.7-37.3c1-2.9 1.9-6.7 4.8-5.7 1.9 0 2.9 3.8 2.9 5.7l-1.9 38.3c0 2.9 1.9 5.7 4.8 5.7 0 0 27.7 2.9 45 2.9 18.2 0 47.8-3.8 47.8-3.8 2.9-1 4.8-2.9 4.8-5.7l-1.9-37.3c0-2.9 0-8.6 2.9-8.6s3.8 4.8 4.8 8.6l4.8 36.3c1 2.9 2.9 4.8 5.7 3.8l20.1-3.8c2.9-1 4.8-3.8 4.8-6.7-0.3-1.1-0.3-105.3-94.9-105.3z"/>
</svg>
