<?xml version="1.0" encoding="UTF-8" standalone="no"?>
<!-- Generator: Adobe Illustrator 18.1.1, SVG Export Plug-In . SVG Version: 6.00 Build 0)  -->
<!DOCTYPE svg  PUBLIC '-//W3C//DTD SVG 1.1//EN'  'http://www.w3.org/Graphics/SVG/1.1/DTD/svg11.dtd'>
<svg id="レイヤー_1" xmlns="http://www.w3.org/2000/svg" xml:space="preserve" viewBox="0 0 240 240" version="1.1" y="0px" x="0px" xmlns:xlink="http://www.w3.org/1999/xlink" enable-background="new 0 0 240 240">
	<circle cy="73.3" cx="123.2" r="41.9"/>
	<path d="m26.6 54c0 18.5 15.3 33.8 33.8 33.8 2.4 0 4 0 6.4-0.8-0.8-4.8-1.6-9.7-1.6-14.5 0-16.9 7.2-32.2 19.3-43.5-6.4-6.4-14.5-9.7-24.2-9.7-18.4 0.8-33.7 16.1-33.7 34.7zm153 33.8c18.5 0 33-15.3 33-33.8s-15.3-33.8-33.8-33.8c-8.1 0-14.5 2.4-20.1 7.2 13.7 10.5 22.5 27.4 22.5 45.9 0 4.8-0.8 9.7-1.6 14.5zm-0.8 7.2h-1.6c-3.2 7.2-7.2 14.5-12.9 20.1 17.7 8.1 35.4 25 45.1 56.4h0.8c1.6-0.8 3.2-1.6 3.2-4l-1.6-24.2c0-1.6 0-4.8 1.6-4.8s2.4 3.2 3.2 4.8l3.2 23.4c0.8 1.6 1.6 3.2 4 2.4l12.9-2.4c1.6-0.8 3.2-2.4 3.2-4.8-0.7 0-0.7-66.9-61.1-66.9zm-118.4 0c-60.4 0-60.4 66.9-60.4 66.9 0 1.6 1.6 4 3.2 4.8l15.3 3.2c1.6 0.8 3.2-0.8 4-2.4l3.2-23.4c0.8-1.6 1.6-4.8 3.2-4 1.6 0 1.6 2.4 1.6 4l-1.5 24.2c0 1.6 1.6 4 3.2 4 0 0 2.4 0 4.8 0.8 6.4-21.7 20.9-45.1 45.1-57.2-5.6-5.6-10.5-12.1-13.7-20.1-1.6-0.8-4.8-0.8-8-0.8z"/>
	<path d="m123.2 123.2c-74.1 0-74.9 82.9-74.9 82.9 0 2.4 1.6 4.8 4 5.6l18.5 4c2.4 0.8 4-0.8 4.8-3.2l4-29c0.8-2.4 1.6-5.6 4-4.8 1.6 0 2.4 3.2 2.4 4.8l-1.6 29.8c0 2.4 1.6 4.8 4 4.8 0 0 21.7 2.4 35.4 2.4 14.5 0 37.9-3.2 37.9-3.2 2.4-0.8 4-2.4 4-4.8l-1.6-29.8c0-2.4 0-6.4 2.4-6.4s3.2 4 4 6.4l4 29c0.8 2.4 2.4 4 4.8 3.2l16.1-3.2c2.4-0.8 4-3.2 4-5.6-1.3 0.1-1.3-82.9-76.2-82.9z"/>
</svg>
