<?xml version="1.0" encoding="UTF-8" standalone="no"?>
<!-- Generator: Adobe Illustrator 18.1.1, SVG Export Plug-In . SVG Version: 6.00 Build 0)  -->
<!DOCTYPE svg  PUBLIC '-//W3C//DTD SVG 1.1//EN'  'http://www.w3.org/Graphics/SVG/1.1/DTD/svg11.dtd'>
<svg id="レイヤー_1" xmlns="http://www.w3.org/2000/svg" xml:space="preserve" viewBox="0 0 240 240" version="1.1" y="0px" x="0px" xmlns:xlink="http://www.w3.org/1999/xlink" enable-background="new 0 0 240 240">
	<circle cy="53.2" cx="119" r="53"/>
	<path d="m119 116.4c-93.8 0-94.8 105-94.8 105 0 3.1 2 6.1 5.1 7.1l23.4 5.1c3.1 1 5.1-1 6.1-4.1l5.1-36.7c1-3.1 2-7.1 5.1-6.1 2 0 3.1 4.1 3.1 6.1l-2 37.7c0 3.1 2 6.1 5.1 6.1 0 0 27.5 3.1 44.9 3.1 18.3 0 47.9-4.1 47.9-4.1 3.1-1 5.1-3.1 5.1-6.1l-2-37.7c0-3.1 0-8.2 3.1-8.2s4.1 5.1 5.1 8.2l5.1 36.7c1 3.1 3.1 5.1 6.1 4.1l20.4-4.1c3.1-1 5.1-4.1 5.1-7.1-2.2 0-2.2-105-97-105z"/>
</svg>
