<?xml version="1.0" encoding="UTF-8" standalone="no"?>
<!-- Generator: Adobe Illustrator 18.1.1, SVG Export Plug-In . SVG Version: 6.00 Build 0)  -->
<!DOCTYPE svg  PUBLIC '-//W3C//DTD SVG 1.1//EN'  'http://www.w3.org/Graphics/SVG/1.1/DTD/svg11.dtd'>
<svg id="レイヤー_1" xmlns="http://www.w3.org/2000/svg" xml:space="preserve" viewBox="0 0 240 240" version="1.1" y="0px" x="0px" xmlns:xlink="http://www.w3.org/1999/xlink" enable-background="new 0 0 240 240">
	<line y1="13.7" x2="10.7" x1="226.4" y2="229.4" fill="none"/>
	<path d="m124.8 75.2c4.1-6.2 31.1-63.6 3.5-74-13.8-5.5-15.2 8.3-23.5 29s-29 42.2-31.8 46.3c-5.5 1.4-49.8 19.4-49.8 51.2v26.3c0 6.2 2.1 13.8 6.9 21.4l100.2-100.2h-5.5zm53.2 66.4h2.8c9 0 16.6-7.6 16.6-16.6s-7.6-16.6-16.6-16.6h-0.7c9 0 16.6-7.6 16.6-16.6 0-4.1-1.4-7.6-4.1-10.4l-124.5 124.5c4.1 1.4 9 1.4 13.8 1.4h88.5c8.3 0 15.2-7.6 15.2-16.6s-6.9-16.6-15.2-16.6h6.2c9 0 16.6-7.6 16.6-16.6 1.4-8.3-6.2-15.9-15.2-15.9z" fill="#231815"/>
	<path d="m10.7 239.8c-2.8 0-5.5-0.7-7.6-2.8-4.1-4.1-4.1-10.4 0-14.5l215.7-215.7c4.1-4.1 10.4-4.1 14.5 0s4.1 10.4 0 14.5l-215 215c-2.1 2.1-4.8 3.5-7.6 3.5z"/>
</svg>
