<?xml version="1.0" encoding="UTF-8" standalone="no"?>
<!-- Generator: Adobe Illustrator 18.1.1, SVG Export Plug-In . SVG Version: 6.00 Build 0)  -->
<!DOCTYPE svg  PUBLIC '-//W3C//DTD SVG 1.1//EN'  'http://www.w3.org/Graphics/SVG/1.1/DTD/svg11.dtd'>
<svg id="レイヤー_1" xmlns="http://www.w3.org/2000/svg" xml:space="preserve" viewBox="0 0 240 240" version="1.1" y="0px" x="0px" xmlns:xlink="http://www.w3.org/1999/xlink" enable-background="new 0 0 240 240">
	<path d="m198.3 163.8h3.2c10.4 0 19.2-8.8 19.2-19.2s-8.8-19.2-19.2-19.2h-0.8c10.4 0 19.2-8.8 19.2-19.2s-8.8-19.2-19.2-19.2h-63.9c4.8-7.2 35.9-73.5 4-85.4-16-6.4-17.6 9.6-27.2 33.5s-33.5 48.9-36.7 53.7c-6.4 1.6-57.5 22.4-57.5 59.1v30.3c0 20.8 24.8 61.5 68.7 61.5h102.2c9.6 0 17.6-8.8 17.6-19.2s-8-19.2-17.6-19.2h7.2c10.4 0 19.2-8.8 19.2-19.2 0.7-9.5-8.1-18.3-18.4-18.3z" fill="#231815"/>
</svg>
