<?xml version="1.0" encoding="UTF-8" standalone="no"?>
<!-- Generator: Adobe Illustrator 18.1.1, SVG Export Plug-In . SVG Version: 6.00 Build 0)  -->
<!DOCTYPE svg  PUBLIC '-//W3C//DTD SVG 1.1//EN'  'http://www.w3.org/Graphics/SVG/1.1/DTD/svg11.dtd'>
<svg id="レイヤー_1" xmlns="http://www.w3.org/2000/svg" xml:space="preserve" viewBox="0 0 240 240" version="1.1" y="0px" x="0px" xmlns:xlink="http://www.w3.org/1999/xlink" enable-background="new 0 0 240 240">
<g fill="#231815">
	<path d="m120.5 120.5c-6.6 0-10.9-4.4-10.9-10.9v-98.4c0-6.6 4.4-10.9 10.9-10.9 6.6 0 10.9 4.4 10.9 10.9v98.4c0.1 6.6-4.3 10.9-10.9 10.9z"/>
	<path d="m119.5 239.7c-60.1 0-109.4-49.2-109.4-109.4 0-39.4 20.8-75.5 54.7-95.1 5.5-2.2 12-1.1 15.3 4.4s1.1 12-4.4 15.3c-27.3 15.3-43.7 44.9-43.7 75.5 0 48.1 39.4 87.5 87.5 87.5s87.5-39.4 87.5-87.5c0-32.8-17.5-62.3-45.9-77.6-5.5-2.2-7.7-8.7-4.4-14.2s9.8-7.7 15.3-4.4c36.1 18.6 58 55.8 58 96.2-1.2 60.1-50.4 109.3-110.5 109.3z"/>
</g>
</svg>
