<?xml version="1.0" encoding="UTF-8" standalone="no"?>
<!-- Generator: Adobe Illustrator 18.1.1, SVG Export Plug-In . SVG Version: 6.00 Build 0)  -->
<!DOCTYPE svg  PUBLIC '-//W3C//DTD SVG 1.1//EN'  'http://www.w3.org/Graphics/SVG/1.1/DTD/svg11.dtd'>
<svg id="レイヤー_1" xmlns="http://www.w3.org/2000/svg" xml:space="preserve" viewBox="0 0 240 240" version="1.1" y="0px" x="0px" xmlns:xlink="http://www.w3.org/1999/xlink" enable-background="new 0 0 240 240">
	<path d="m231 149.3h-66.3c2.6 5.1 5.1 11.1 7.7 17h58.6c5.1 0 8.5-3.4 8.5-8.5 0-4.2-3.4-8.5-8.5-8.5z"/>
	<path d="m128.9 115.3h102c5.1 0 8.5-3.4 8.5-8.5s-3.4-8.5-8.5-8.5h-102c-5.1 0-8.5 3.4-8.5 8.5s3.4 8.5 8.5 8.5z"/>
	<circle cy="63.4" cx="81.3" r="45.1"/>
	<path d="m231 200.4h-50.2v6c0 3.4-0.9 7.7-2.6 11.1h52.8c5.1 0 8.5-3.4 8.5-8.5 0-4.4-3.4-8.6-8.5-8.6z"/>
	<path d="m81.3 117c-79.9 0-80.8 89.3-80.8 89.3 0 2.6 1.7 5.1 4.3 6l19.6 4.3c2.6 0.9 4.3-0.9 5.1-3.4l4.3-31.5c0.9-2.6 1.7-6 4.3-5.1 1.7 0 2.6 3.4 2.6 5.1l-1.9 32.3c0 2.6 1.7 5.1 4.3 5.1 0 0 23.8 2.6 38.3 2.6 15.3 0 40.8-3.4 40.8-3.4 2.6-0.9 4.3-2.6 4.3-5.1l-1.7-32.3c0-2.6 0-6.8 2.6-6.8s3.4 4.3 4.3 6.8l4.3 31.5c0.9 2.6 2.6 4.3 5.1 3.4l17-3.4c2.6-0.9 4.3-3.4 4.3-6-0.3 0.8-0.3-89.4-81.1-89.4z"/>
</svg>
