<?xml version="1.0" encoding="utf-8"?>
<!-- Generator: Adobe Illustrator 18.1.1, SVG Export Plug-In . SVG Version: 6.00 Build 0)  -->
<!DOCTYPE svg PUBLIC "-//W3C//DTD SVG 1.1//EN" "http://www.w3.org/Graphics/SVG/1.1/DTD/svg11.dtd">
<svg version="1.1" id="レイヤー_1" xmlns="http://www.w3.org/2000/svg" xmlns:xlink="http://www.w3.org/1999/xlink" x="0px"
	 y="0px" viewBox="0 0 240 240" enable-background="new 0 0 240 240" xml:space="preserve">
<path d="M227.7,131.9H12c-6.4,0-12-5.6-12-12l0,0c0-6.4,5.6-12,12-12h215.8c6.4,0,12,5.6,12,12l0,0
	C239.7,126.3,234.1,131.9,227.7,131.9z"/>
<path d="M227.7,219.7H12c-6.4,0-12-5.6-12-12l0,0c0-6.4,5.6-12,12-12h215.8c6.4,0,12,5.6,12,12l0,0
	C239.7,214.1,234.1,219.7,227.7,219.7z"/>
<path d="M227.7,44H12C5.6,44,0,38.4,0,32l0,0c0-6.4,5.6-12,12-12h215.8c6.4,0,12,5.6,12,12l0,0C239.7,38.4,234.1,44,227.7,44z"/>
</svg>
