<?xml version="1.0" encoding="UTF-8" standalone="no"?>
<!-- Generator: Adobe Illustrator 18.1.1, SVG Export Plug-In . SVG Version: 6.00 Build 0)  -->
<!DOCTYPE svg  PUBLIC '-//W3C//DTD SVG 1.1//EN'  'http://www.w3.org/Graphics/SVG/1.1/DTD/svg11.dtd'>
<svg id="レイヤー_1" xmlns="http://www.w3.org/2000/svg" xml:space="preserve" viewBox="0 0 240 240" version="1.1" y="0px" x="0px" xmlns:xlink="http://www.w3.org/1999/xlink" enable-background="new 0 0 240 240">
	<path d="m220.4 158.3c21.8-22.6 26.6-58.1 10.5-86.3-16.9-29-50.8-42-82.3-33.9 12.1 12.1 21 26.6 25 43.6 6.5 25 3.2 50.8-9.7 73.4-4.8 8.1-11.3 16.1-17.7 22.6 12.1 4 25.8 4 37.9 1.6l32.3 24.2c4 3.2 9.7 0 8.9-4.8l-4.9-40.4z"/>
	<path d="m80.8 42.1c11.3 0 22.6 3.2 32.3 8.9 15.3 8.9 25.8 22.6 29.8 39.5 4.8 16.9 2.4 33.9-6.5 49.2-11.3 20.2-33.1 32.3-55.7 32.3-4.8 0-10.5-0.8-15.3-1.6l-7.3-1.6-6.5 4.8-16.9 12.9 2.4-21 0.8-7.3-4-7.3c-19.4-21-23.4-52.4-8.9-76.6 11.4-19.2 33.2-32.2 55.8-32.2m0-16.1c-28.2 0-54.9 14.5-70.2 40.3-18.6 31.5-12.9 70.2 11.3 96l-5.6 44.4c-0.8 4 2.4 7.3 5.6 7.3 1.6 0 3.2-0.8 4-1.6l35.5-27.4c6.5 1.6 12.9 2.4 18.6 2.4 28.2 0 54.9-14.5 70.2-40.3 22.6-38.7 8.9-87.9-29.8-110.5-12.2-6.6-25.9-10.6-39.6-10.6z"/>
</svg>
