<?xml version="1.0" encoding="UTF-8" standalone="no"?>
<!-- Generator: Adobe Illustrator 18.1.1, SVG Export Plug-In . SVG Version: 6.00 Build 0)  -->
<!DOCTYPE svg  PUBLIC '-//W3C//DTD SVG 1.1//EN'  'http://www.w3.org/Graphics/SVG/1.1/DTD/svg11.dtd'>
<svg id="レイヤー_1" xmlns="http://www.w3.org/2000/svg" xml:space="preserve" viewBox="0 0 240 240" version="1.1" y="0px" x="0px" xmlns:xlink="http://www.w3.org/1999/xlink" enable-background="new 0 0 240 240">
	<path d="m238.1 200.5c0-6.7-4.8-12.5-13.5-18.3-7.7-12.5-17.4-22.2-21.2-42.4-10.6-54.9-19.3-91.6-56.9-101.2 1-2.9 1.9-6.7 1.9-9.6 0-16.4-13.5-28.9-28.9-28.9s-28.9 12.4-28.9 28.8c0 3.9 1 6.7 1.9 10.6-34.7 10.6-45.3 45.3-55.9 99.3-3.9 20.2-13.5 28.9-21.2 42.4-8.7 5.8-13.5 12.5-13.5 19.3v1c1 21.2 54 38.6 117.6 38.6 64.6-0.1 116.7-17.4 118.6-39.6v0zm-128.2-172.6c0-5.8 4.8-9.6 9.6-9.6 5.8 0 9.6 3.9 9.6 9.6 0 2.9-1 4.8-2.9 6.7h-4.8-8.7c-0.9-1.8-2.8-3.8-2.8-6.7zm9.6 192.8c-48.2 0-87.7-8.7-87.7-19.3 0-8.7 24.1-15.4 57.8-18.3 1 15.4 13.5 27 28.9 27s28-12.5 28.9-27c33.7 2.9 58.8 9.6 58.8 18.3 1 10.7-38.5 19.3-86.7 19.3z"/>
</svg>
