<?xml version="1.0" encoding="UTF-8" standalone="no"?>
<!-- Generator: Adobe Illustrator 18.1.1, SVG Export Plug-In . SVG Version: 6.00 Build 0)  -->
<!DOCTYPE svg  PUBLIC '-//W3C//DTD SVG 1.1//EN'  'http://www.w3.org/Graphics/SVG/1.1/DTD/svg11.dtd'>
<svg id="レイヤー_1" xmlns="http://www.w3.org/2000/svg" xml:space="preserve" viewBox="0 0 240 240" version="1.1" y="0px" x="0px" xmlns:xlink="http://www.w3.org/1999/xlink" enable-background="new 0 0 240 240">
<g fill="#231815">
	<polygon points="80 158.8 90.3 122.3 116.5 148.5"/>
	<path d="m199.9 88.1v127.9h-174.7v-174.8h123.9l23.8-23.8h-153.3c-10.3 0-18.3 7.9-18.3 18.3v185.1c0 11.1 7.9 19.1 18.3 19.1h185.1c10.3 0 18.3-7.9 18.3-18.3v-157.3l-23.1 23.8z"/>
	<path d="m233.3 31.7l-110.4 110.4-26.2-26.2 110.4-110.4c7.2-7.2 19.1-7.2 26.2 0 7.2 7.9 7.2 19.1 0 26.2z"/>
</g>
</svg>
