<?xml version="1.0" encoding="utf-8"?>
<!-- Generator: Adobe Illustrator 18.1.1, SVG Export Plug-In . SVG Version: 6.00 Build 0)  -->
<!DOCTYPE svg PUBLIC "-//W3C//DTD SVG 1.1//EN" "http://www.w3.org/Graphics/SVG/1.1/DTD/svg11.dtd">
<svg version="1.1" id="レイヤー_1" xmlns="http://www.w3.org/2000/svg" xmlns:xlink="http://www.w3.org/1999/xlink" x="0px"
	 y="0px" viewBox="0 0 240 240" enable-background="new 0 0 240 240" xml:space="preserve">
<path d="M217.3,0H23.8C17.7,0,12,5.2,12,11.3V172c0,6.1,5.7,11,11.8,11h64.6l34,56.6l34-56.6h61c6.1,0,9.7-5,9.7-11V11.3
	C227,5.2,223.4,0,217.3,0z M132,153c0,2.4-0.6,5-3,5h-16.8c-2.4,0-4.2-2.6-4.2-5v-16.8c0-2.4,1.7-4.2,4.2-4.2H129c2.4,0,3,1.8,3,4.2
	V153z M148.4,96.4C137,105,133,108.1,133,117.6c0,1.7-2,2.4-4.4,2.4H112c-2.4,0-4-0.5-4-2.9v-0.5c0-2.4,0.2-6.4,0.6-8.7
	c0,0,1.9-11.2,11.9-18.9c12.2-9.6,18.4-14.6,18.4-21.2c0-9.3-12-9.8-15.9-9.8c-16.1,0-16.9,12.2-17.2,16.2H80.6
	c-2.4,0-4.2-1.9-4.1-4.3c0,0,0.6-9.1,6.8-17.5c11.4-15.6,30.9-17.9,40.9-17.9c28.1,0,44,15.7,44,33
	C168.2,78.3,162.9,85.2,148.4,96.4z"/>
</svg>
