<?xml version="1.0" encoding="UTF-8" standalone="no"?>
<!-- Generator: Adobe Illustrator 18.1.1, SVG Export Plug-In . SVG Version: 6.00 Build 0)  -->
<!DOCTYPE svg  PUBLIC '-//W3C//DTD SVG 1.1//EN'  'http://www.w3.org/Graphics/SVG/1.1/DTD/svg11.dtd'>
<svg id="レイヤー_1" xmlns="http://www.w3.org/2000/svg" xml:space="preserve" viewBox="0 0 240 240" version="1.1" y="0px" x="0px" xmlns:xlink="http://www.w3.org/1999/xlink" enable-background="new 0 0 240 240">
	<path d="m175.3 83.1v-73.8h-110.6v73.8h-64.6v147.6h92.2v-27.7c0-15.7 12-27.7 27.7-27.7s27.7 12 27.7 27.7v0.9 26.8h92.2v-147.6h-64.6zm-119.9 64.6h-36.9v-27.7h36.9v27.7zm55.4 0h-36.9v-27.7h36.9v27.7zm9.2-55.4c-17.5 0-32.3-14.8-32.3-32.3 0-18.4 14.8-32.3 32.3-32.3s32.3 14.8 32.3 32.3-14.8 32.3-32.3 32.3zm46.1 55.4h-36.9v-27.7h36.9v27.7zm55.4 0h-36.9v-27.7h36.9v27.7z"/>
	<path d="m136.6 44.4l-14.8 11.1h-1.8s-0.9 0-1.8 0l-10.2-7.4c-0.9-0.9-2.8-0.9-3.7 0s-0.9 2.8 0 3.7l10.1 7.4v0.9c0 2.8 1.8 4.6 4.6 4.6s4.6-1.8 4.6-4.6v-0.9l14.8-10.2c0.9-0.9 0.9-1.8 0.9-3.7 0.1-1.9-1.8-1.9-2.7-0.9z"/>
</svg>
