<?xml version="1.0" encoding="UTF-8" standalone="no"?>
<!-- Generator: Adobe Illustrator 18.1.1, SVG Export Plug-In . SVG Version: 6.00 Build 0)  -->
<!DOCTYPE svg  PUBLIC '-//W3C//DTD SVG 1.1//EN'  'http://www.w3.org/Graphics/SVG/1.1/DTD/svg11.dtd'>
<svg id="レイヤー_1" xmlns="http://www.w3.org/2000/svg" xml:space="preserve" viewBox="0 0 240 240" version="1.1" y="0px" x="0px" xmlns:xlink="http://www.w3.org/1999/xlink" enable-background="new 0 0 240 240">
	<path d="m235.1 214.8l-66.7-66.7c26.5-36.3 23.5-87.3-9.8-120.6-18.6-18.7-42.1-27.5-65.7-27.5s-48 8.8-65.7 27.5c-36.3 36.3-36.3 95.1 0 131.4 18.6 18.6 42.2 27.5 65.7 27.5 19.6 0 38.2-5.9 54.9-17.7l66.7 66.7c5.9 5.9 14.7 5.9 20.6 0s5.9-14.7 0-20.6zm-194.2-69.7c-13.7-13.7-21.6-32.4-21.6-52s7.8-38.2 21.6-52 32.4-21.6 52-21.6 38.2 7.8 52 21.6 21.6 32.4 21.6 52-7.8 38.2-21.6 52c-13.7 13.7-32.4 21.6-52 21.6s-38.2-7.8-52-21.6z"/>
</svg>
