<?xml version="1.0" encoding="UTF-8" standalone="no"?>
<!-- Generator: Adobe Illustrator 18.1.1, SVG Export Plug-In . SVG Version: 6.00 Build 0)  -->
<!DOCTYPE svg  PUBLIC '-//W3C//DTD SVG 1.1//EN'  'http://www.w3.org/Graphics/SVG/1.1/DTD/svg11.dtd'>
<svg id="レイヤー_1" xmlns="http://www.w3.org/2000/svg" xml:space="preserve" viewBox="0 0 240 240" version="1.1" y="0px" x="0px" xmlns:xlink="http://www.w3.org/1999/xlink" enable-background="new 0 0 240 240">
	<path d="m235.6 215.2l-48.2-48.2c-4.9-4.9-10.8-4.9-16.7-2.9l-7.9-7.9c33.4-36.4 32.4-93.4-2.9-128.7-18.6-18.7-42.2-27.5-65.8-27.5s-49.1 8.8-66.8 27.5c-36.4 36.4-36.4 95.3 0 131.7 18.7 18.7 42.3 27.5 65.8 27.5 22.6 0 44.2-7.9 61.9-23.6l7.9 7.9c-2.9 5.9-2 11.8 2.9 16.7l48.2 48.2c5.9 5.9 14.7 5.9 20.6 0 6.9-5.9 6.9-14.8 1-20.7zm-142.5-53c-18.7 0-35.4-6.9-48.2-20.6-12.8-12.8-20.6-30.5-20.6-48.2s6.9-35.4 20.7-48.2c12.8-12.8 30.5-20.6 48.2-20.6 18.7 0 35.4 6.9 48.2 20.6 12.8 12.8 20.6 30.5 20.6 48.2s-6.9 35.4-20.6 48.2c-12.9 13.7-29.6 20.6-48.3 20.6z"/>
</svg>
