<?xml version="1.0" encoding="UTF-8" standalone="no"?>
<!-- Generator: Adobe Illustrator 18.1.1, SVG Export Plug-In . SVG Version: 6.00 Build 0)  -->
<!DOCTYPE svg  PUBLIC '-//W3C//DTD SVG 1.1//EN'  'http://www.w3.org/Graphics/SVG/1.1/DTD/svg11.dtd'>
<svg id="レイヤー_1" xmlns="http://www.w3.org/2000/svg" xml:space="preserve" viewBox="0 0 240 240" version="1.1" y="0px" x="0px" xmlns:xlink="http://www.w3.org/1999/xlink" enable-background="new 0 0 240 240">
	<path d="m119.8 0c-66.6 0-119.8 53.2-119.8 119.8s53.2 119.8 119.8 119.8 119.8-53.2 119.8-119.8-53.3-119.8-119.8-119.8zm12 198.3c-4 4-8 5.3-12 5.3-5.3 0-9.3-1.3-12-5.3-4-4-5.3-8-5.3-12 0-5.3 1.3-9.3 5.3-12 4-4 8-5.3 12-5.3 5.3 0 9.3 1.3 12 5.3 4 4 5.3 8 5.3 12-1.3 4-2.7 8-5.3 12zm25.2-87.8c-5.3 6.7-10.6 12-24 13.3v16h-26.6v-40h9.3c6.7 0 12 1.3 14.6-2.7 4-4 5.3-8 5.3-14.6 0-5.3-1.3-9.3-4-12s-6.7-4-12-4-9.3 2.7-12 5.3c-2.7 4-4 2.7-4 16h-29.1c0-26.6 4-26.6 12-35.9 8-8 20-13.3 34.6-13.3 13.3 0 24 4 33.3 12 8 8 12 20 12 33.3 0 10.6-4 19.9-9.4 26.6z"/>
</svg>
