<?xml version="1.0" encoding="UTF-8" standalone="no"?>
<!-- Generator: Adobe Illustrator 18.1.1, SVG Export Plug-In . SVG Version: 6.00 Build 0)  -->
<!DOCTYPE svg  PUBLIC '-//W3C//DTD SVG 1.1//EN'  'http://www.w3.org/Graphics/SVG/1.1/DTD/svg11.dtd'>
<svg id="レイヤー_1" xmlns="http://www.w3.org/2000/svg" xml:space="preserve" viewBox="0 0 240 240" version="1.1" y="0px" x="0px" xmlns:xlink="http://www.w3.org/1999/xlink" enable-background="new 0 0 240 240">
<g fill="#231815">
	<path d="m164.2 26.5v139h-139v-139h139m12.9-26h-164.9c-7.8 0-13 5.2-13 13v164.9c0 7.8 5.2 13 13 13h164.9c7.8 0 13-5.2 13-13v-164.9c0-7.8-5.2-13-13-13z"/>
	<path d="m229.1 57.7h-27.3v26h13v129.9h-142.9v-13h-25.9v29.9c0 7.8 10.4 9.1 18.2 9.1h164.9c7.8 0 11.7-1.3 11.7-9.1v-165c0-7.8-3.9-7.8-11.7-7.8z"/>
</g>
</svg>
